<?xml version="1.0" standalone="no"?>
<!DOCTYPE svg PUBLIC "-//W3C//DTD SVG 20010904//EN"
 "http://www.w3.org/TR/2001/REC-SVG-20010904/DTD/svg10.dtd">
<svg version="1.0" xmlns="http://www.w3.org/2000/svg"
 width="700.000000pt" height="700.000000pt" viewBox="0 0 700.000000 700.000000"
 preserveAspectRatio="xMidYMid meet">
<metadata>
Created by potrace 1.11, written by Peter Selinger 2001-2013
</metadata>
<g transform="translate(0.000000,700.000000) scale(0.100000,-0.100000)"
fill="#000000" stroke="none">
<path d="M3225 6400 c-498 -55 -935 -210 -1330 -473 -539 -359 -941 -877
-1151 -1487 -34 -100 -88 -302 -99 -370 -3 -19 -10 -55 -15 -80 -26 -124 -35
-246 -35 -490 0 -185 9 -372 20 -390 1 -3 5 -27 9 -55 25 -201 110 -497 208
-719 335 -763 979 -1347 1771 -1605 142 -46 333 -92 442 -107 22 -2 49 -7 60
-9 129 -27 644 -27 780 -1 11 2 42 7 68 10 51 8 75 12 117 21 14 3 34 7 45 9
187 37 488 141 667 232 27 13 49 24 50 23 2 -1 33 17 71 40 37 22 70 41 74 41
3 0 21 11 39 25 18 14 35 25 38 25 10 0 136 89 246 174 94 73 343 310 413 394
138 164 281 377 374 557 133 258 247 601 288 870 3 17 10 62 16 100 6 39 12
185 14 325 4 284 -10 432 -61 665 -68 306 -186 602 -347 870 -256 428 -641
801 -1081 1049 -242 135 -596 266 -841 310 -16 3 -43 8 -59 11 -146 28 -256
37 -476 40 -135 1 -276 -1 -315 -5z m-228 -478 c-72 -95 -197 -281 -250 -372
-82 -143 -185 -347 -226 -447 l-13 -33 -509 0 c-280 0 -509 2 -509 5 0 12 140
167 228 253 344 335 771 567 1232 668 34 8 103 22 113 23 4 1 -26 -43 -66 -97z
m1083 66 c450 -101 883 -341 1220 -678 95 -94 210 -224 210 -236 0 -2 -228 -4
-508 -4 l-507 0 -44 98 c-42 92 -62 132 -162 317 -40 75 -236 379 -262 408 -7
7 -27 33 -46 57 -19 25 -39 51 -44 57 -11 15 4 13 143 -19z m-758 -575 l1
-338 -212 -3 c-116 -1 -211 0 -211 3 0 11 95 194 148 285 78 133 263 402 270
395 2 -2 4 -156 4 -342z m448 227 c103 -145 203 -308 276 -452 30 -59 54 -110
54 -113 0 -3 -94 -5 -210 -5 l-210 0 -1 28 c-3 143 -3 662 1 662 3 0 43 -54
90 -120z m-1405 -932 c3 -3 -10 -63 -29 -134 -32 -118 -78 -324 -90 -399 -9
-62 -16 -112 -22 -160 -3 -27 -7 -57 -9 -65 -2 -8 -7 -64 -11 -124 -7 -127 -8
-133 -16 -142 -5 -5 -971 -9 -1196 -5 l-43 1 6 53 c3 28 7 68 10 87 2 19 7 55
11 79 30 225 121 505 243 751 l32 65 555 -1 c305 -1 557 -3 559 -6z m952 -2
c3 -3 7 -235 7 -516 l1 -510 -35 -1 c-47 0 -666 0 -708 0 l-33 1 5 58 c3 31 7
89 11 127 3 39 8 84 10 100 3 17 7 48 10 70 4 22 8 51 11 65 2 14 7 41 10 60
3 19 10 55 16 80 5 25 12 56 14 70 10 49 35 147 72 269 25 84 42 125 54 130
22 8 547 6 555 -3z m908 5 l30 -1 47 -167 c45 -159 82 -312 92 -378 2 -16 11
-73 19 -125 16 -100 29 -231 31 -314 l1 -49 -378 0 c-208 0 -381 3 -384 7 -4
4 -8 920 -4 1008 1 9 9 18 18 20 13 2 411 2 528 -1z m1569 -86 c133 -268 236
-637 248 -894 l3 -54 -617 -1 c-406 -1 -618 2 -619 9 0 6 -2 18 -4 28 -2 10
-6 62 -10 115 -3 53 -8 108 -10 122 -3 14 -7 45 -10 70 -14 112 -27 198 -35
230 -5 19 -12 53 -16 75 -5 33 -66 280 -90 362 -5 17 -1 22 18 25 12 2 265 3
560 3 l537 0 45 -90z m-3607 -1309 c9 -8 9 -11 17 -131 8 -121 41 -362 62
-465 33 -156 52 -237 74 -315 13 -44 23 -88 24 -99 1 -18 -18 -18 -557 -19
-306 0 -559 2 -560 4 -11 14 -92 192 -118 257 -50 125 -106 304 -124 397 -15
75 -44 256 -50 312 l-6 62 28 3 c55 6 1204 1 1210 -6z m1129 1 c5 -5 9 -860 5
-1002 l-1 -30 -285 1 c-157 0 -287 3 -288 5 -16 22 -129 456 -140 539 -3 19
-12 82 -20 140 -23 154 -40 337 -33 349 5 8 755 6 762 -2z m1128 -38 c-1 -61
-14 -231 -19 -249 -2 -8 -7 -35 -10 -60 -12 -88 -34 -206 -55 -295 -12 -49
-23 -99 -26 -110 -9 -45 -77 -261 -84 -268 -9 -10 -557 -14 -566 -4 -4 4 -7
236 -8 516 -1 435 1 511 13 513 8 2 181 2 385 2 l371 -1 -1 -44z m1584 42 c25
-1 25 5 6 -151 -20 -173 -87 -432 -154 -601 -49 -121 -119 -267 -133 -276 -13
-8 -1105 -8 -1113 0 -3 3 11 63 30 133 45 163 80 333 106 511 17 125 34 310
32 356 0 10 8 21 18 25 14 5 1056 8 1208 3z m-3501 -1439 c152 -331 290 -566
469 -803 41 -54 72 -99 69 -99 -4 0 -57 11 -118 25 -473 107 -889 333 -1236
673 -99 97 -221 233 -221 245 0 4 228 7 508 7 l507 0 22 -48z m797 -300 c0
-188 -1 -342 -4 -341 -14 1 -214 295 -282 414 -35 61 -138 263 -138 270 0 3
95 4 211 3 l211 -3 2 -343z m776 343 c0 -11 -95 -195 -148 -285 -95 -163 -258
-397 -269 -386 -5 4 -7 565 -4 659 1 16 18 17 211 17 116 0 210 -2 210 -5z
m1410 0 c0 -12 -133 -159 -222 -247 -157 -154 -363 -310 -528 -400 -134 -73
-157 -85 -245 -122 -49 -21 -99 -42 -110 -47 -27 -11 -204 -70 -224 -74 -9 -2
-59 -13 -111 -25 -52 -11 -105 -23 -118 -26 -18 -4 -6 17 61 108 75 101 170
242 236 351 58 96 133 243 217 424 l29 63 508 0 c279 0 507 -2 507 -5z"/>
</g>
</svg>
